<?xml version="1.0" encoding="UTF-8"?>
<svg width="500pt" height="500pt" version="1.1" viewBox="0 0 700 700" xmlns="http://www.w3.org/2000/svg" xmlns:xlink="http://www.w3.org/1999/xlink">
    <g>
        <path fill="#61DAFB" d="m333.36 541.01 33.75-151.86h30.344v66.441c0 5.2383 4.2539 9.4883 9.4922 9.4883 5.25 0 9.4922-4.25 9.4922-9.4883v-66.441h113.9v66.441c0 5.2383 4.25 9.4883 9.4922 9.4883 5.2461 0 9.4883-4.25 9.4883-9.4883v-66.441h30.355l33.754 151.86zm-249.12-339.36c0-11.75 9.5664-21.316 21.328-21.316h42.168c-1.1758 1.8203-2.1641 3.7578-3.0352 5.75-0.23828 0.54297-0.41016 1.0898-0.61719 1.6406-0.68359 1.7461-1.2422 3.543-1.6914 5.4023-0.16016 0.68359-0.32031 1.3477-0.44531 2.0391-0.44531 2.4219-0.75781 4.8906-0.75781 7.4414v338.4h-56.949zm123.39-154.2c5.5039 0 10.855 0.57031 16.066 1.5664-10.117 16.07-16.066 35.023-16.066 55.383v56.949h-85.426v-28.477c0-47.094 38.328-85.422 85.426-85.422zm34.871 7.5156c29.754 13.375 50.551 43.234 50.551 77.906v28.477h-66.441v-56.949c0-18.422 5.9219-35.461 15.891-49.434zm69.535-35.992c47.105 0 85.422 38.328 85.422 85.426v56.949h-85.422v-28.477c0-40.215-22.887-75.125-56.285-92.559 15.055-13.23 34.719-21.34 56.285-21.34zm218.3 332.21v18.98h-47.457v-75.078c26.887 4.5469 47.457 27.934 47.457 56.098zm66.211 26.414c-0.95703-4.3398-4.8125-7.4336-9.2617-7.4336h-37.969v-18.98c0-38.652-29.043-70.582-66.438-75.277v-74.254c0-22.219-18.074-40.301-40.301-40.301h-26.141v-56.949c0-57.566-46.832-104.41-104.41-104.41-29.746 0-56.57 12.574-75.602 32.613-9.1602-2.6406-18.801-4.1406-28.805-4.1406-57.566 0-104.41 46.84-104.41 104.41v28.715c-21.117 1.2344-37.965 18.641-37.965 40.062v348.85c0 5.2383 4.2539 9.4922 9.4922 9.4922h550.51c2.8867 0 5.6094-1.3125 7.4141-3.5586 1.793-2.2422 2.4766-5.1836 1.8516-7.9922z" fill-rule="evenodd" />
    </g>
</svg>